P3
#Created with GIMP
10 10
255
0 0 0 0 0 0 0 0 0 0 0 0 0 0 0 0 0 0 0 0 0 0 0 0 0 0 0 0 0 0 
0 0 0 0 0 0 0 0 0 0 0 0 0 0 0 0 0 0 0 0 0 0 0 0 0 0 0 0 0 0 
0 0 0 140 26 26 197 40 40 197 40 40 140 26 26 0 0 0 0 0 0 0 0 0 0 0 0 0 0 0 
0 0 0 197 40 40 209 43 43 209 43 43 197 40 40 40 140 26 59 197 40 59 197 40 40 140 26 0 0 0 
0 0 0 197 40 40 209 43 43 166 53 144 85 61 197 61 197 85 63 209 43 63 209 43 59 197 40 0 0 0 
0 0 0 140 26 26 197 40 40 85 61 197 43 63 209 61 198 90 63 209 43 63 209 43 59 197 40 0 0 0 
0 0 0 0 0 0 0 0 0 40 59 197 43 63 209 53 147 166 61 197 85 59 197 40 40 140 26 0 0 0 
0 0 0 0 0 0 0 0 0 26 40 140 40 59 197 40 59 197 26 40 140 0 0 0 0 0 0 0 0 0 
0 0 0 0 0 0 0 0 0 0 0 0 0 0 0 0 0 0 0 0 0 0 0 0 0 0 0 0 0 0 
0 0 0 0 0 0 0 0 0 0 0 0 0 0 0 0 0 0 0 0 0 0 0 0 0 0 0 0 0 0 
