P3
# CREATOR: Image Processing using C-Ansi - ByDu
#
10 10
255
0 0 0 0 1 0 0 0 0 0 0 0 0 0 0 0 0 0 0 0 0 0 1 0 0 0 0 0 0 0 
0 1 0 0 0 0 1 0 0 0 1 0 0 0 1 0 0 0 0 0 0 0 0 1 1 0 0 0 1 0 
0 0 0 141 26 26 197 40 40 197 40 40 140 26 26 0 1 0 0 0 1 1 0 0 0 1 0 0 0 0 
0 0 0 197 40 40 209 43 42 209 43 43 197 41 40 40 140 27 58 197 40 59 197 40 40 140 26 0 0 0 
0 0 0 197 40 40 208 43 43 166 52 144 85 61 196 60 197 85 63 208 43 63 209 42 58 197 40 0 0 0 
0 0 0 140 26 26 197 40 40 85 61 196 42 63 209 61 198 90 63 209 42 62 209 43 59 196 40 0 0 0 
0 0 0 0 0 0 0 0 0 40 59 197 43 62 209 53 147 166 60 197 85 59 196 40 40 140 26 0 0 0 
0 0 0 0 0 0 0 0 0 26 40 140 40 59 196 40 59 197 26 40 140 0 0 0 1 0 0 0 0 0 
0 0 0 0 0 0 0 1 0 0 0 1 0 0 0 0 1 0 0 0 0 0 0 0 0 0 0 0 0 0 
1 0 0 0 1 0 0 0 0 0 0 0 0 1 0 0 0 0 0 0 0 0 0 0 0 0 0 0 0 0 
